<svg width="33" height="33" viewBox="0 0 33 33" fill="none" xmlns="http://www.w3.org/2000/svg">
<path d="M6.73212 29.6203C6.37504 29.6203 6.03258 29.4785 5.78009 29.226C5.52759 28.9735 5.38574 28.631 5.38574 28.2739V17.5029C5.38574 17.1458 5.52759 16.8034 5.78009 16.5509C6.03258 16.2984 6.37504 16.1565 6.73212 16.1565C7.0892 16.1565 7.43166 16.2984 7.68415 16.5509C7.93665 16.8034 8.0785 17.1458 8.0785 17.5029V28.2739C8.0785 28.631 7.93665 28.9735 7.68415 29.226C7.43166 29.4785 7.0892 29.6203 6.73212 29.6203ZM13.464 29.6203C13.1069 29.6203 12.7645 29.4785 12.512 29.226C12.2595 28.9735 12.1176 28.631 12.1176 28.2739V4.03913C12.1176 3.68205 12.2595 3.33959 12.512 3.08709C12.7645 2.8346 13.1069 2.69275 13.464 2.69275C13.8211 2.69275 14.1635 2.8346 14.416 3.08709C14.6685 3.33959 14.8104 3.68205 14.8104 4.03913V28.2739C14.8104 28.631 14.6685 28.9735 14.416 29.226C14.1635 29.4785 13.8211 29.6203 13.464 29.6203ZM20.1959 29.6203C19.8388 29.6203 19.4964 29.4785 19.2439 29.226C18.9914 28.9735 18.8495 28.631 18.8495 28.2739V12.1174C18.8495 11.7603 18.9914 11.4179 19.2439 11.1654C19.4964 10.9129 19.8388 10.771 20.1959 10.771C20.553 10.771 20.8954 10.9129 21.1479 11.1654C21.4004 11.4179 21.5423 11.7603 21.5423 12.1174V28.2739C21.5423 28.631 21.4004 28.9735 21.1479 29.226C20.8954 29.4785 20.553 29.6203 20.1959 29.6203ZM26.9278 29.6203C26.5707 29.6203 26.2283 29.4785 25.9758 29.226C25.7233 28.9735 25.5814 28.631 25.5814 28.2739V22.8884C25.5814 22.5313 25.7233 22.1889 25.9758 21.9364C26.2283 21.6839 26.5707 21.542 26.9278 21.542C27.2849 21.542 27.6273 21.6839 27.8798 21.9364C28.1323 22.1889 28.2742 22.5313 28.2742 22.8884V28.2739C28.2742 28.631 28.1323 28.9735 27.8798 29.226C27.6273 29.4785 27.2849 29.6203 26.9278 29.6203Z" fill="#9C5C08"/>
</svg>
