<svg width="46" height="46" viewBox="0 0 46 46" fill="none" xmlns="http://www.w3.org/2000/svg">
<path fill-rule="evenodd" clip-rule="evenodd" d="M22.4861 9.95529C22.6838 10.4721 23.0064 10.9112 23.4147 11.2194C23.8231 11.5276 24.2996 11.6915 24.7866 11.6915H40.2706C40.6044 11.6915 40.9245 11.8454 41.1605 12.1195C41.3965 12.3936 41.5291 12.7653 41.5291 13.1529V39.4587C41.5291 39.8463 41.3965 40.218 41.1605 40.4921C40.9245 40.7662 40.6044 40.9202 40.2706 40.9202H5.03383C4.70007 40.9202 4.37997 40.7662 4.14397 40.4921C3.90796 40.218 3.77537 39.8463 3.77537 39.4587V5.84574C3.77537 5.45814 3.90796 5.08642 4.14397 4.81235C4.37997 4.53828 4.70007 4.3843 5.03383 4.3843H19.5413C19.7748 4.38431 20.0037 4.45977 20.2024 4.60224C20.4011 4.74471 20.5618 4.94857 20.6664 5.19101L22.4861 9.95529ZM25.1641 6.40108C25.2588 6.66889 25.4199 6.89798 25.627 7.05929C25.834 7.22061 26.0776 7.30689 26.3269 7.30717H40.2706C41.6057 7.30717 42.8861 7.92306 43.8301 9.01935C44.7741 10.1156 45.3045 11.6025 45.3045 13.1529V39.4587C45.3045 41.0091 44.7741 42.496 43.8301 43.5923C42.8861 44.6886 41.6057 45.3045 40.2706 45.3045H5.03383C3.69877 45.3045 2.4184 44.6886 1.47437 43.5923C0.530348 42.496 0 41.0091 0 39.4587V5.84574C0 4.29535 0.530348 2.80846 1.47437 1.71218C2.4184 0.615888 3.69877 0 5.03383 0H19.5413C20.4763 3.68716e-05 21.3929 0.302497 22.1882 0.873476C22.9835 1.44445 23.6261 2.26138 24.0441 3.23269L25.1641 6.40108ZM13.843 18.9986H31.4614V23.3829H13.843V18.9986ZM31.4614 29.2287H13.843V33.613H31.4614V29.2287Z" fill="#9C5C08"/>
</svg>
