<svg width="33" height="44" viewBox="0 0 33 44" fill="none" xmlns="http://www.w3.org/2000/svg">
<path d="M21.2796 37.5576L13.3508 39.6821C12.786 39.8334 12.2 39.4951 12.0486 38.9302C11.8973 38.3654 12.2356 37.7794 12.8004 37.6281L20.7292 35.5036C21.2941 35.3523 21.88 35.6905 22.0314 36.2554C22.1828 36.8202 21.8444 37.4062 21.2796 37.5576ZM17.6085 13.1916C17.5375 14.1582 16.9908 14.7029 16.142 14.6891C15.2969 14.6755 14.6818 14.0963 14.7021 13.2144C14.7218 12.3562 15.2598 11.7925 16.1751 11.8025C17.0898 11.8124 17.5432 12.3528 17.6085 13.1916ZM27.7732 9.93425C24.6191 4.72477 18.3719 2.19367 12.5681 3.88934C7.48896 5.37339 4.1773 8.72705 2.97313 13.8848C1.78125 18.9897 3.26479 23.3806 7.01942 27.0578C7.89995 27.9203 8.70954 28.9649 9.20593 30.0796C9.70359 31.1969 9.86313 31.5463 11.0753 31.253C12.7588 30.8456 14.4197 30.3453 16.1028 29.9364C16.9657 29.7268 17.2935 29.245 17.2878 28.3752C17.2648 24.8645 17.2725 21.3536 17.2853 17.8428C17.2881 17.0481 17.0383 16.3937 16.1833 16.3739C15.3177 16.3538 15.0527 16.9862 15.06 17.7964C15.08 20.0726 15.066 22.3489 15.0659 24.6251C15.0658 28.2868 15.0659 28.2868 11.4654 28.8129C10.0966 27.2445 8.85024 25.8347 7.62377 24.4076C3.22196 19.2859 4.02692 11.7145 9.52073 7.79308C13.4676 4.9757 17.7076 4.81893 21.9348 7.19773C25.8598 9.40663 27.9951 13.9574 27.4292 18.3596C27.0511 21.3005 25.6468 23.6479 23.564 25.6659C22.3069 26.8838 21.1615 28.195 20.7492 29.956C20.5563 30.7796 20.0945 31.1882 19.2966 31.3848C19.4457 31.2462 10.6965 33.6977 10.6965 33.6977C10.1429 33.846 9.81147 34.4202 9.95982 34.9737L9.98262 35.0593C10.131 35.6127 10.7051 35.9443 11.2587 35.796C11.2587 35.796 21.2976 33.0983 21.4292 33.0611C22.3589 32.8044 22.8649 32.1426 22.8861 31.1979C22.9177 29.7877 23.5305 28.6901 24.5276 27.7531C25.0615 27.2514 25.593 26.7452 26.0953 26.2126C30.2418 21.8148 30.9261 15.142 27.7732 9.93425Z" fill="#9C5C08"/>
</svg>
