<svg width="33" height="33" viewBox="0 0 33 33" fill="none" xmlns="http://www.w3.org/2000/svg">
<g clip-path="url(#clip0_644_539)">
<path d="M10.771 19.1724C13.8731 19.1724 16.5443 19.7153 18.4723 21.0143C20.4693 22.3606 21.5421 24.4351 21.5421 27.143C21.5247 27.4169 21.4037 27.6739 21.2036 27.8617C21.0035 28.0495 20.7394 28.1541 20.465 28.1541C20.1905 28.1541 19.9264 28.0495 19.7263 27.8617C19.5262 27.6739 19.4052 27.4169 19.3878 27.143C19.3878 25.0792 18.6166 23.7049 17.2703 22.7979C15.8528 21.8458 13.6792 21.3266 10.771 21.3266C7.86285 21.3266 5.6871 21.8458 4.27179 22.8001C2.92541 23.707 2.15421 25.0814 2.15421 27.1451C2.13687 27.419 2.01585 27.676 1.81576 27.8638C1.61567 28.0517 1.35154 28.1562 1.0771 28.1562C0.802664 28.1562 0.538533 28.0517 0.338443 27.8638C0.138352 27.676 0.017331 27.419 0 27.1451C0 24.4351 1.07064 22.3606 3.06759 21.0143C4.9956 19.7153 7.66897 19.1724 10.771 19.1724ZM21.4882 19.1724C24.5881 19.1724 27.2615 19.7153 29.1895 21.0143C31.1864 22.3606 32.2592 24.4351 32.2592 27.1451C32.2592 27.4308 32.1457 27.7048 31.9437 27.9067C31.7418 28.1087 31.4678 28.2222 31.1821 28.2222C30.8965 28.2222 30.6225 28.1087 30.4205 27.9067C30.2185 27.7048 30.105 27.4308 30.105 27.1451C30.105 25.0814 29.3338 23.707 27.9853 22.8001C26.8694 22.0483 25.2861 21.5722 23.2417 21.3999C22.7325 20.568 22.1007 19.8178 21.3676 19.1746L21.4882 19.1724ZM10.771 3.98526C12.5411 4.02987 14.2237 4.76437 15.4599 6.03208C16.696 7.29979 17.3879 9.00036 17.3879 10.771C17.3879 12.5417 16.696 14.2422 15.4599 15.5099C14.2237 16.7776 12.5411 17.5121 10.771 17.5568C8.97133 17.5568 7.24535 16.8418 5.97278 15.5693C4.7002 14.2967 3.98528 12.5707 3.98528 10.771C3.98528 8.97132 4.7002 7.24533 5.97278 5.97276C7.24535 4.70019 8.97133 3.98526 10.771 3.98526ZM21.4882 3.98526C23.2879 3.98526 25.0139 4.70019 26.2864 5.97276C27.559 7.24533 28.2739 8.97132 28.2739 10.771C28.2739 12.5707 27.559 14.2967 26.2864 15.5693C25.0139 16.8418 23.2879 17.5568 21.4882 17.5568C20.3594 17.5568 19.2995 17.2767 18.3646 16.7899C18.8154 16.223 19.2013 15.6073 19.5149 14.9545C20.2209 15.2884 20.9998 15.4385 21.7793 15.3906C22.5587 15.3428 23.3134 15.0986 23.9732 14.6809C24.633 14.2631 25.1765 13.6853 25.553 13.0011C25.9296 12.317 26.1271 11.5487 26.1271 10.7678C26.1271 9.98684 25.9296 9.21858 25.553 8.53444C25.1765 7.85029 24.633 7.27247 23.9732 6.8547C23.3134 6.43693 22.5587 6.19277 21.7793 6.14493C20.9998 6.09709 20.2209 6.24713 19.5149 6.58108C19.2003 5.92963 18.8137 5.31544 18.3624 4.75C19.3258 4.24445 20.3981 3.98193 21.486 3.98526M10.771 6.13947C9.56712 6.17619 8.42482 6.68025 7.58621 7.54483C6.74761 8.4094 6.27861 9.56654 6.27861 10.771C6.27861 11.9755 6.74761 13.1326 7.58621 13.9972C8.42482 14.8618 9.56712 15.3658 10.771 15.4025C11.9994 15.4025 13.1774 14.9146 14.046 14.046C14.9146 13.1774 15.4026 11.9994 15.4026 10.771C15.4026 9.54265 14.9146 8.3646 14.046 7.49601C13.1774 6.62743 11.9994 6.13947 10.771 6.13947Z" fill="#9C5C08"/>
</g>
<defs>
<clipPath id="clip0_644_539">
<rect width="32.3131" height="32.3131" fill="white"/>
</clipPath>
</defs>
</svg>
