<svg width="13" height="12" viewBox="0 0 13 12" fill="none" xmlns="http://www.w3.org/2000/svg">
<path d="M11.4428 1.39248C11.1503 1.10633 10.8039 0.880267 10.4234 0.727189C10.043 0.574112 9.63585 0.497024 9.22537 0.50033C8.81488 0.503636 8.40907 0.587271 8.03111 0.746456C7.65315 0.905642 7.31045 1.13726 7.02258 1.42807L6.42516 2.03134L5.8181 1.43778C5.22725 0.860061 4.42962 0.539255 3.60067 0.545931C2.77172 0.552607 1.97935 0.886218 1.39788 1.47337C0.816416 2.06053 0.493478 2.85313 0.500112 3.67682C0.506746 4.50051 0.842407 5.28781 1.43326 5.86552L6.49591 10.8156L11.4782 5.78462C11.7662 5.49394 11.9937 5.14973 12.1478 4.77166C12.3019 4.39358 12.3795 3.98905 12.3763 3.58117C12.373 3.1733 12.2888 2.77007 12.1287 2.39453C11.9685 2.01898 11.7354 1.67848 11.4428 1.39248Z" stroke="#7B8480" stroke-linecap="round" stroke-linejoin="round"/>
</svg>
