<svg width="18" height="18" viewBox="0 0 18 18" fill="none" xmlns="http://www.w3.org/2000/svg">
<path fill-rule="evenodd" clip-rule="evenodd" d="M8.934 3.95535C9.01255 4.16069 9.14072 4.33516 9.30295 4.4576C9.46518 4.58004 9.65452 4.64519 9.848 4.64516H16C16.1326 4.64516 16.2598 4.70634 16.3536 4.81523C16.4473 4.92412 16.5 5.07181 16.5 5.22581V15.6774C16.5 15.8314 16.4473 15.9791 16.3536 16.088C16.2598 16.1969 16.1326 16.2581 16 16.2581H2C1.86739 16.2581 1.74021 16.1969 1.64645 16.088C1.55268 15.9791 1.5 15.8314 1.5 15.6774V2.32258C1.5 2.16858 1.55268 2.02089 1.64645 1.912C1.74021 1.80311 1.86739 1.74194 2 1.74194H7.764C7.85678 1.74194 7.94773 1.77192 8.02667 1.82853C8.10561 1.88513 8.16944 1.96613 8.211 2.06245L8.934 3.95535ZM9.998 2.54323C10.0356 2.64963 10.0996 2.74065 10.1819 2.80474C10.2642 2.86883 10.3609 2.90311 10.46 2.90323H16C16.5304 2.90323 17.0391 3.14793 17.4142 3.58349C17.7893 4.01906 18 4.60982 18 5.22581V15.6774C18 16.2934 17.7893 16.8842 17.4142 17.3197C17.0391 17.7553 16.5304 18 16 18H2C1.46957 18 0.960859 17.7553 0.585786 17.3197C0.210714 16.8842 0 16.2934 0 15.6774V2.32258C0 1.70659 0.210714 1.11584 0.585786 0.680268C0.960859 0.2447 1.46957 0 2 0H7.764C8.13549 1.46495e-05 8.49964 0.120186 8.81563 0.347042C9.13161 0.573899 9.38694 0.898475 9.553 1.28439L9.998 2.54323ZM5.5 7.54839H12.5V9.29032H5.5V7.54839ZM12.5 11.6129H5.5V13.3548H12.5V11.6129Z" fill="#ED9828"/>
</svg>
