<svg width="24" height="24" viewBox="0 0 24 24" fill="none" xmlns="http://www.w3.org/2000/svg">
<path d="M12 1C5.928 1 1 5.928 1 12C1 18.072 5.928 23 12 23C18.072 23 23 18.072 23 12C23 5.928 18.072 1 12 1ZM12 20.8C7.149 20.8 3.2 16.851 3.2 12C3.2 7.149 7.149 3.2 12 3.2C16.851 3.2 20.8 7.149 20.8 12C20.8 16.851 16.851 20.8 12 20.8ZM5.95 18.05L14.211 14.211L18.05 5.95L9.789 9.789L5.95 18.05ZM12 10.79C12.671 10.79 13.21 11.329 13.21 12C13.21 12.671 12.671 13.21 12 13.21C11.329 13.21 10.79 12.671 10.79 12C10.79 11.329 11.329 10.79 12 10.79Z" fill="#ED9828"/>
</svg>
