<svg width="24" height="24" viewBox="0 0 24 24" fill="none" xmlns="http://www.w3.org/2000/svg">
<g clip-path="url(#clip0_650_2154)">
<path d="M12.6667 2.5C6.59475 2.5 1.66675 7.428 1.66675 13.5C1.66675 19.572 6.59475 24.5 12.6667 24.5C18.7387 24.5 23.6667 19.572 23.6667 13.5C23.6667 7.428 18.7387 2.5 12.6667 2.5ZM11.5667 22.223C7.22175 21.684 3.86675 17.988 3.86675 13.5C3.86675 12.818 3.95475 12.169 4.09775 11.531L9.36675 16.8V17.9C9.36675 19.11 10.3567 20.1 11.5667 20.1V22.223ZM19.1567 19.429C18.8707 18.538 18.0567 17.9 17.0667 17.9H15.9667V14.6C15.9667 13.995 15.4717 13.5 14.8667 13.5H8.26675V11.3H10.4667C11.0717 11.3 11.5667 10.805 11.5667 10.2V8H13.7667C14.9767 8 15.9667 7.01 15.9667 5.8V5.349C19.1897 6.658 21.4667 9.815 21.4667 13.5C21.4667 15.788 20.5867 17.867 19.1567 19.429Z" fill="#ED9828"/>
</g>
<defs>
<clipPath id="clip0_650_2154">
<rect width="24" height="24" fill="white"/>
</clipPath>
</defs>
</svg>
