<svg width="22" height="22" viewBox="0 0 22 22" fill="none" xmlns="http://www.w3.org/2000/svg">
<path d="M7.33333 13.0533C9.44533 13.0533 11.264 13.4229 12.5767 14.3073C13.9363 15.224 14.6667 16.6364 14.6667 18.48C14.6549 18.6665 14.5725 18.8415 14.4362 18.9693C14.3 19.0972 14.1202 19.1684 13.9333 19.1684C13.7465 19.1684 13.5667 19.0972 13.4304 18.9693C13.2942 18.8415 13.2118 18.6665 13.2 18.48C13.2 17.0749 12.6749 16.1392 11.7583 15.5217C10.7932 14.8735 9.31333 14.52 7.33333 14.52C5.35333 14.52 3.872 14.8735 2.9084 15.5232C1.99173 16.1407 1.46667 17.0764 1.46667 18.4815C1.45487 18.6679 1.37247 18.8429 1.23624 18.9708C1.10001 19.0987 0.920182 19.1699 0.733333 19.1699C0.546485 19.1699 0.366654 19.0987 0.230425 18.9708C0.0941952 18.8429 0.0117996 18.6679 0 18.4815C0 16.6364 0.728933 15.224 2.08853 14.3073C3.4012 13.4229 5.22133 13.0533 7.33333 13.0533ZM14.63 13.0533C16.7405 13.0533 18.5607 13.4229 19.8733 14.3073C21.2329 15.224 21.9633 16.6364 21.9633 18.4815C21.9633 18.676 21.8861 18.8625 21.7485 19C21.611 19.1375 21.4245 19.2148 21.23 19.2148C21.0355 19.2148 20.849 19.1375 20.7115 19C20.5739 18.8625 20.4967 18.676 20.4967 18.4815C20.4967 17.0764 19.9716 16.1407 19.0535 15.5232C18.2937 15.0113 17.2157 14.6872 15.8239 14.5699C15.4772 14.0035 15.047 13.4928 14.5479 13.0548L14.63 13.0533ZM7.33333 2.71334C8.53848 2.74371 9.68406 3.24379 10.5257 4.10689C11.3673 4.97 11.8384 6.12781 11.8384 7.33334C11.8384 8.53887 11.3673 9.69668 10.5257 10.5598C9.68406 11.4229 8.53848 11.923 7.33333 11.9533C6.10803 11.9533 4.93292 11.4666 4.0665 10.6002C3.20008 9.73375 2.71333 8.55864 2.71333 7.33334C2.71333 6.10804 3.20008 4.93292 4.0665 4.06651C4.93292 3.20009 6.10803 2.71334 7.33333 2.71334ZM14.63 2.71334C15.8553 2.71334 17.0304 3.20009 17.8968 4.06651C18.7633 4.93292 19.25 6.10804 19.25 7.33334C19.25 8.55864 18.7633 9.73375 17.8968 10.6002C17.0304 11.4666 15.8553 11.9533 14.63 11.9533C13.8615 11.9533 13.1399 11.7627 12.5033 11.4312C12.8103 11.0452 13.073 10.6261 13.2865 10.1816C13.7672 10.409 14.2975 10.5111 14.8282 10.4785C15.3589 10.446 15.8727 10.2797 16.3219 9.99531C16.7711 9.71088 17.1411 9.31748 17.3975 8.85168C17.6539 8.38589 17.7883 7.86283 17.7883 7.33114C17.7883 6.79945 17.6539 6.27639 17.3975 5.8106C17.1411 5.3448 16.7711 4.9514 16.3219 4.66696C15.8727 4.38253 15.3589 4.2163 14.8282 4.18373C14.2975 4.15116 13.7672 4.2533 13.2865 4.48067C13.0723 4.03714 12.8091 3.61898 12.5019 3.23401C13.1578 2.88981 13.8878 2.71107 14.6285 2.71334M7.33333 4.18001C6.51367 4.20501 5.73594 4.54819 5.16499 5.13683C4.59403 5.72547 4.27472 6.51329 4.27472 7.33334C4.27472 8.15339 4.59403 8.94121 5.16499 9.52985C5.73594 10.1185 6.51367 10.4617 7.33333 10.4867C8.16965 10.4867 8.97171 10.1544 9.56308 9.56308C10.1544 8.97172 10.4867 8.16965 10.4867 7.33334C10.4867 6.49702 10.1544 5.69496 9.56308 5.1036C8.97171 4.51223 8.16965 4.18001 7.33333 4.18001Z" fill="#ED9828"/>
</svg>
