<svg width="22" height="22" viewBox="0 0 22 22" fill="none" xmlns="http://www.w3.org/2000/svg">
<path d="M4.58329 20.1667C4.34018 20.1667 4.10702 20.0701 3.93511 19.8982C3.7632 19.7263 3.66663 19.4931 3.66663 19.25V11.9167C3.66663 11.6736 3.7632 11.4404 3.93511 11.2685C4.10702 11.0966 4.34018 11 4.58329 11C4.82641 11 5.05957 11.0966 5.23147 11.2685C5.40338 11.4404 5.49996 11.6736 5.49996 11.9167V19.25C5.49996 19.4931 5.40338 19.7263 5.23147 19.8982C5.05957 20.0701 4.82641 20.1667 4.58329 20.1667ZM9.16663 20.1667C8.92351 20.1667 8.69035 20.0701 8.51844 19.8982C8.34654 19.7263 8.24996 19.4931 8.24996 19.25V2.75001C8.24996 2.5069 8.34654 2.27374 8.51844 2.10183C8.69035 1.92992 8.92351 1.83334 9.16663 1.83334C9.40974 1.83334 9.6429 1.92992 9.81481 2.10183C9.98672 2.27374 10.0833 2.5069 10.0833 2.75001V19.25C10.0833 19.4931 9.98672 19.7263 9.81481 19.8982C9.6429 20.0701 9.40974 20.1667 9.16663 20.1667ZM13.75 20.1667C13.5068 20.1667 13.2737 20.0701 13.1018 19.8982C12.9299 19.7263 12.8333 19.4931 12.8333 19.25V8.25001C12.8333 8.00689 12.9299 7.77374 13.1018 7.60183C13.2737 7.42992 13.5068 7.33334 13.75 7.33334C13.9931 7.33334 14.2262 7.42992 14.3981 7.60183C14.57 7.77374 14.6666 8.00689 14.6666 8.25001V19.25C14.6666 19.4931 14.57 19.7263 14.3981 19.8982C14.2262 20.0701 13.9931 20.1667 13.75 20.1667ZM18.3333 20.1667C18.0902 20.1667 17.857 20.0701 17.6851 19.8982C17.5132 19.7263 17.4166 19.4931 17.4166 19.25V15.5833C17.4166 15.3402 17.5132 15.1071 17.6851 14.9352C17.857 14.7633 18.0902 14.6667 18.3333 14.6667C18.5764 14.6667 18.8096 14.7633 18.9815 14.9352C19.1534 15.1071 19.25 15.3402 19.25 15.5833V19.25C19.25 19.4931 19.1534 19.7263 18.9815 19.8982C18.8096 20.0701 18.5764 20.1667 18.3333 20.1667Z" fill="#ED9828"/>
</svg>
