<svg width="53" height="53" viewBox="0 0 53 53" fill="none" xmlns="http://www.w3.org/2000/svg">
<path d="M25.6011 2.49179C26.4528 2.48203 27.7804 2.43611 28.5915 2.4928C29.0111 2.49053 30.0177 2.46034 30.3687 2.71164C31.0235 3.00445 31.3734 2.88686 32.0169 3.03601C33.0367 3.27907 34.0391 3.59058 35.0171 3.96844C37.5087 4.92801 39.9889 6.46739 42.0337 8.17276C42.5252 8.58274 43.0969 8.97791 43.534 9.45775C46.5276 12.744 48.8009 16.7958 49.6937 21.1702C49.7772 21.973 50.1425 22.8111 50.1703 23.6141C50.235 25.4903 50.2774 27.4135 50.0858 29.2834C50.0429 29.7024 49.8308 30.1595 49.7733 30.5622C49.5967 31.7996 49.1775 32.9378 48.7914 34.1212C48.6728 34.4868 48.5918 35.0016 48.4207 35.3309C47.5055 37.0922 46.6203 38.8011 45.447 40.4097C45.1761 40.7811 44.765 41.1025 44.472 41.4615C41.2061 45.419 36.6777 47.7432 31.7832 49.0475C31.186 49.2067 30.6366 49.1184 29.9671 49.3468C29.5492 49.547 28.7656 49.6093 28.3018 49.5906C26.7279 49.5272 24.8017 49.7902 23.2977 49.3073C23.2718 49.2974 23.2459 49.2876 23.2201 49.2777L23.1776 49.2634C22.6564 49.0848 21.8362 49.1778 21.3207 49.0489C20.1246 48.7496 18.9056 48.3363 17.7675 47.8646C15.9555 47.1138 14.2786 46.1697 12.6367 45.1047C12.306 44.8902 11.6613 44.3264 11.3136 44.0631C10.7356 43.6254 9.90473 42.964 9.43751 42.4285C8.25702 41.0753 7.29738 39.8862 6.42945 38.293C5.9258 37.3686 5.48969 36.7369 5.07166 35.7168C4.53187 34.3266 3.9179 32.8301 3.60883 31.3612C3.40678 30.4009 3.19663 29.2014 3.02828 28.229C2.91206 27.5577 3.02495 26.503 2.98637 25.7897C2.91536 24.4768 3.0825 23.1765 3.40773 21.9076C3.49299 21.5861 3.48013 21.1417 3.57363 20.8094C3.89162 19.6791 4.18033 18.5009 4.62468 17.4132C5.19105 15.9993 5.87642 14.6359 6.67339 13.3378C7.06773 12.6924 7.61336 11.9191 7.97882 11.2463C8.146 10.9385 9.33131 10.0145 9.65345 9.70184C10.6684 8.71679 11.6701 7.56083 12.8921 6.83498C13.2193 6.64249 13.5513 6.30958 13.8897 6.11368C15.3087 5.29223 16.7578 4.48848 18.2963 3.91213C19.2481 3.55514 20.2242 3.26707 21.2172 3.05016C21.8844 2.90864 22.2933 2.9952 22.9436 2.72213C23.6036 2.41169 24.8502 2.49071 25.6011 2.49179Z" fill="#ED9828"/>
<path d="M23.2977 49.3073C23.4302 49.2361 23.5995 49.1391 23.749 49.1475C24.6655 49.1995 25.42 49.3736 26.3561 49.415C27.7719 49.4777 28.5896 49.0053 29.9671 49.3468C29.5492 49.547 28.7656 49.6093 28.3019 49.5906C26.7279 49.5272 24.8017 49.7902 23.2977 49.3073Z" fill="#ED9828"/>
<path d="M22.9436 2.72214C23.6037 2.41169 24.8502 2.49071 25.6011 2.4918C24.8644 2.77723 23.7629 3.08464 23.0151 2.74287C22.9909 2.73182 22.9832 2.73173 22.9436 2.72214Z" fill="#ED9828"/>
<path d="M28.5914 2.49281C29.011 2.49054 30.0177 2.46035 30.3686 2.71165C29.3642 3.05636 29.3294 2.61095 28.5914 2.49281Z" fill="#ED9828"/>
<path d="M20.9067 19.1855C21.6532 19.6229 25.8042 23.7723 26.4219 24.5802C27.4273 23.9635 27.8807 23.3917 28.7132 22.5905C29.8405 21.5057 31.0306 20.2246 32.2842 19.3114C32.5272 19.6357 32.9994 19.7682 32.9659 20.2639C32.9426 20.6077 32.6346 21.0605 32.4229 21.3265C31.6471 22.2813 30.7405 23.1373 29.8706 24.0078C29.2669 24.612 28.6728 25.2971 28.0439 25.8662C28.8994 27.0124 33.1016 31.0894 33.2345 31.8393C32.9878 31.8366 32.8899 31.9652 32.6929 32.1291C32.5452 32.2523 32.3501 32.4285 32.1493 32.4462C31.3995 32.5124 27.5288 28.1539 26.6234 27.4636C25.248 28.3207 22.8376 31.6071 21.1747 32.428C21.0062 32.4875 20.8058 32.4252 20.6666 32.3408C20.2452 32.0849 20.0555 31.5567 20.379 31.1371C21.7384 29.3746 23.8925 27.7839 25.0923 25.9341C24.6634 25.4176 24.3641 25.0706 23.8452 24.4944C22.7614 23.2913 21.0842 21.9652 20.2284 20.6156C20.0694 20.3648 20.7284 19.5498 20.9067 19.1855Z" fill="#150C07"/>
</svg>
