<svg width="20" height="23" viewBox="0 0 20 23" fill="none" xmlns="http://www.w3.org/2000/svg">
<path d="M13.1708 19.4215L8.26337 20.6049C7.91373 20.6892 7.55108 20.5008 7.45738 20.1861C7.36373 19.8715 7.57311 19.545 7.92269 19.4607L12.8301 18.2773C13.1798 18.193 13.5424 18.3814 13.6361 18.6961C13.7299 19.0107 13.5204 19.3371 13.1708 19.4215ZM10.8986 5.84843C10.8547 6.38683 10.5163 6.6903 9.99092 6.68261C9.46785 6.67502 9.08717 6.35238 9.09972 5.86108C9.11191 5.38305 9.44493 5.06903 10.0114 5.07461C10.5776 5.0801 10.8582 5.38118 10.8986 5.84843ZM17.19 4.03389C15.2378 1.13196 11.3711 -0.277997 7.77889 0.666581C4.63519 1.49327 2.58545 3.36143 1.84014 6.23454C1.10243 9.07825 2.02066 11.5242 4.34457 13.5726C4.88957 14.053 5.39066 14.6349 5.6979 15.2559C6.00592 15.8783 6.10467 16.0729 6.85493 15.9095C7.89691 15.6826 8.92493 15.4038 9.9667 15.1761C10.5008 15.0593 10.7037 14.791 10.7001 14.3064C10.6859 12.3508 10.6907 10.395 10.6986 8.43935C10.7003 7.99666 10.5457 7.63216 10.0165 7.6211C9.48076 7.60989 9.31675 7.96221 9.32123 8.41352C9.33363 9.68144 9.32498 10.9495 9.32488 12.2174C9.32483 14.2572 9.32488 14.2572 7.09639 14.5503C6.2492 13.6766 5.47774 12.8913 4.71863 12.0963C1.99415 9.24321 2.49238 5.02558 5.89275 2.84116C8.33566 1.27174 10.9599 1.18441 13.5763 2.50952C16.0057 3.73999 17.3274 6.27499 16.9771 8.72725C16.7431 10.3654 15.8739 11.6731 14.5847 12.7972C13.8067 13.4756 13.0977 14.2061 12.8425 15.187C12.7232 15.6458 12.4373 15.8734 11.9435 15.9829C12.0358 15.9057 6.62045 17.2713 6.62045 17.2713C6.27785 17.3539 6.07269 17.6738 6.16452 17.9821L6.17863 18.0298C6.27045 18.3381 6.62582 18.5228 6.96842 18.4402C6.96842 18.4402 13.182 16.9375 13.2634 16.9167C13.8388 16.7737 14.152 16.4051 14.1651 15.8788C14.1847 15.0933 14.564 14.4818 15.1812 13.9599C15.5116 13.6804 15.8406 13.3984 16.1515 13.1018C18.718 10.6519 19.1415 6.93485 17.19 4.03389Z" fill="#ED9828"/>
</svg>
