<svg width="17" height="14" viewBox="0 0 17 14" fill="none" xmlns="http://www.w3.org/2000/svg">
<path fill-rule="evenodd" clip-rule="evenodd" d="M8.04628 10.4458L5.30755 11.6919C4.97976 11.841 4.57434 11.732 4.40201 11.4483C4.33339 11.3353 4.30971 11.2059 4.33463 11.0801L4.85768 8.44082L2.64201 6.57165C2.37682 6.34794 2.3714 5.98053 2.62989 5.75103C2.73282 5.65964 2.8677 5.60016 3.01363 5.58181L6.07562 5.19674L7.44498 2.79542C7.60888 2.50802 8.01095 2.39001 8.34303 2.53186C8.47527 2.58834 8.58231 2.68097 8.64757 2.79542L10.0169 5.19674L13.0789 5.58181C13.4454 5.6279 13.6993 5.92237 13.6461 6.23955C13.6249 6.36584 13.5561 6.48257 13.4505 6.57165L11.2349 8.44082L11.7579 11.0801C11.8205 11.396 11.5754 11.696 11.2104 11.7502C11.065 11.7718 10.9155 11.7513 10.785 11.6919L8.04628 10.4458Z" fill="#F2CF22"/>
</svg>
