<svg width="46" height="46" viewBox="0 0 46 46" fill="none" xmlns="http://www.w3.org/2000/svg">
<g clip-path="url(#clip0_213_1678)">
<path d="M36.4167 35.6308C35.9083 35.6308 35.4208 35.8327 35.0614 36.1922C34.7019 36.5516 34.5 37.0391 34.5 37.5475V41.6875C34.5 41.8145 34.4495 41.9364 34.3597 42.0263C34.2698 42.1161 34.1479 42.1666 34.0208 42.1666H4.3125C4.19179 42.167 4.07538 42.1218 3.98654 42.0401C3.89771 41.9584 3.84299 41.8461 3.83333 41.7258V9.14246C3.83333 9.01538 3.88382 8.8935 3.97368 8.80364C4.06354 8.71378 4.18542 8.66329 4.3125 8.66329H6.70833C7.21666 8.66329 7.70418 8.46136 8.06362 8.10191C8.42307 7.74247 8.625 7.25496 8.625 6.74663C8.625 6.23829 8.42307 5.75078 8.06362 5.39134C7.70418 5.03189 7.21666 4.82996 6.70833 4.82996H3.83333C2.81667 4.82996 1.84165 5.23383 1.12276 5.95272C0.403868 6.67161 0 7.64663 0 8.66329L0 42.1666C0 43.1833 0.403868 44.1583 1.12276 44.8772C1.84165 45.5961 2.81667 46 3.83333 46H34.5C35.5167 46 36.4917 45.5961 37.2106 44.8772C37.9295 44.1583 38.3333 43.1833 38.3333 42.1666V37.5475C38.3333 37.0391 38.1314 36.5516 37.772 36.1922C37.4125 35.8327 36.925 35.6308 36.4167 35.6308ZM31.625 8.62496H34.0208C34.1479 8.62496 34.2698 8.67544 34.3597 8.7653C34.4495 8.85516 34.5 8.97704 34.5 9.10413V10.5416C34.5 11.05 34.7019 11.5375 35.0614 11.8969C35.4208 12.2564 35.9083 12.4583 36.4167 12.4583C36.925 12.4583 37.4125 12.2564 37.772 11.8969C38.1314 11.5375 38.3333 11.05 38.3333 10.5416V8.62496C38.3333 7.6083 37.9295 6.63327 37.2106 5.91438C36.4917 5.19549 35.5167 4.79163 34.5 4.79163H31.625C31.1167 4.79163 30.6292 4.99356 30.2697 5.353C29.9103 5.71245 29.7083 6.19996 29.7083 6.70829C29.7083 7.21662 29.9103 7.70414 30.2697 8.06358C30.6292 8.42302 31.1167 8.62496 31.625 8.62496Z" fill="#9C5C08"/>
<path d="M13.4167 10.5417H24.9167C25.6792 10.5417 26.4105 10.2388 26.9496 9.6996C27.4888 9.16043 27.7917 8.42916 27.7917 7.66667V6.70833C27.7917 5.94584 27.4888 5.21457 26.9496 4.6754C26.4105 4.13623 25.6792 3.83333 24.9167 3.83333H23C23 2.81667 22.5962 1.84165 21.8773 1.12276C21.1584 0.403868 20.1833 0 19.1667 0C18.15 0 17.175 0.403868 16.4561 1.12276C15.7372 1.84165 15.3334 2.81667 15.3334 3.83333H13.4167C12.6542 3.83333 11.9229 4.13623 11.3838 4.6754C10.8446 5.21457 10.5417 5.94584 10.5417 6.70833V7.66667C10.5417 8.42916 10.8446 9.16043 11.3838 9.6996C11.9229 10.2388 12.6542 10.5417 13.4167 10.5417ZM7.66669 19.1667C7.66669 19.675 7.86862 20.1625 8.22807 20.522C8.58751 20.8814 9.07502 21.0833 9.58335 21.0833H24.9167C25.425 21.0833 25.9125 20.8814 26.272 20.522C26.6314 20.1625 26.8334 19.675 26.8334 19.1667C26.8334 18.6583 26.6314 18.1708 26.272 17.8114C25.9125 17.4519 25.425 17.25 24.9167 17.25H9.58335C9.07502 17.25 8.58751 17.4519 8.22807 17.8114C7.86862 18.1708 7.66669 18.6583 7.66669 19.1667ZM9.58335 26.8333C9.07502 26.8333 8.58751 27.0353 8.22807 27.3947C7.86862 27.7542 7.66669 28.2417 7.66669 28.75C7.66669 29.2583 7.86862 29.7458 8.22807 30.1053C8.58751 30.4647 9.07502 30.6667 9.58335 30.6667H18.2084C18.7167 30.6667 19.2042 30.4647 19.5636 30.1053C19.9231 29.7458 20.125 29.2583 20.125 28.75C20.125 28.2417 19.9231 27.7542 19.5636 27.3947C19.2042 27.0353 18.7167 26.8333 18.2084 26.8333H9.58335ZM44.8692 15.7933C44.151 15.0794 43.1794 14.6786 42.1667 14.6786C41.154 14.6786 40.1824 15.0794 39.4642 15.7933L24.38 30.8775C24.2859 30.9687 24.2138 31.0801 24.1692 31.2033L21.4475 37.9692C21.3798 38.1438 21.3637 38.3341 21.4011 38.5176C21.4385 38.7011 21.5278 38.87 21.6584 39.0042C21.7898 39.139 21.9588 39.2313 22.1434 39.2689C22.328 39.3065 22.5196 39.2877 22.6934 39.215L29.4784 36.5125C29.5981 36.4612 29.7083 36.3899 29.8042 36.3017L44.8692 21.2175C45.2256 20.8615 45.5083 20.4387 45.7012 19.9734C45.8942 19.508 45.9935 19.0092 45.9935 18.5054C45.9935 18.0017 45.8942 17.5028 45.7012 17.0375C45.5083 16.5721 45.2256 16.1493 44.8692 15.7933Z" fill="#9C5C08"/>
</g>
<defs>
<clipPath id="clip0_213_1678">
<rect width="46" height="46" fill="white"/>
</clipPath>
</defs>
</svg>
