<svg width="52" height="52" viewBox="0 0 52 52" fill="none" xmlns="http://www.w3.org/2000/svg">
<path d="M26 9.75004C26 8.31345 25.4293 6.9357 24.4135 5.91988C23.3977 4.90406 22.0199 4.33337 20.5833 4.33337C19.1467 4.33337 17.769 4.90406 16.7532 5.91988C15.7373 6.9357 15.1667 8.31345 15.1667 9.75004C14.0143 9.74994 12.8827 10.0562 11.8876 10.6374C10.8926 11.2186 10.07 12.0539 9.50403 13.0577C8.93808 14.0615 8.64917 15.1977 8.66688 16.3499C8.68459 17.5022 9.0083 18.6289 9.60483 19.6149C8.12183 19.9014 6.78485 20.6953 5.82345 21.8603C4.86205 23.0252 4.33621 24.4885 4.33621 25.999C4.33621 27.5094 4.86205 28.9727 5.82345 30.1376C6.78485 31.3026 8.12183 32.0965 9.60483 32.383C9.00774 33.369 8.68359 34.496 8.66559 35.6486C8.6476 36.8011 8.93641 37.9377 9.50242 38.9418C10.0684 39.946 10.8913 40.7815 11.8866 41.3628C12.882 41.9442 14.014 42.2504 15.1667 42.25C15.1667 43.6866 15.7373 45.0644 16.7532 46.0802C17.769 47.096 19.1467 47.6667 20.5833 47.6667C22.0199 47.6667 23.3977 47.096 24.4135 46.0802C25.4293 45.0644 26 43.6866 26 42.25M26 42.25C26 43.6866 26.5707 45.0644 27.5865 46.0802C28.6023 47.096 29.9801 47.6667 31.4167 47.6667C32.8533 47.6667 34.231 47.096 35.2468 46.0802C36.2626 45.0644 36.8333 43.6866 36.8333 42.25C37.986 42.2504 39.118 41.9442 40.1134 41.3628C41.1087 40.7815 41.9316 39.946 42.4976 38.9418C43.0636 37.9377 43.3524 36.8011 43.3344 35.6486C43.3164 34.496 42.9922 33.369 42.3952 32.383C43.8782 32.0965 45.2151 31.3026 46.1765 30.1376C47.1379 28.9727 47.6638 27.5094 47.6638 25.999C47.6638 24.4885 47.1379 23.0252 46.1765 21.8603C45.2151 20.6953 43.8782 19.9014 42.3952 19.6149C42.9917 18.6289 43.3154 17.5022 43.3331 16.3499C43.3508 15.1977 43.0619 14.0615 42.496 13.0577C41.93 12.0539 41.1074 11.2186 40.1124 10.6374C39.1173 10.0562 37.9857 9.74994 36.8333 9.75004C36.8333 8.31345 36.2626 6.9357 35.2468 5.91988C34.231 4.90406 32.8533 4.33337 31.4167 4.33337C29.9801 4.33337 28.6023 4.90406 27.5865 5.91988C26.5707 6.9357 26 8.31345 26 9.75004" stroke="#9C5C08" stroke-width="3" stroke-linecap="round" stroke-linejoin="round"/>
<path d="M22.7218 15.1667V19.4567M15.1667 22.7501H19.6127M32.5498 22.7501H36.9958M32.5498 29.1937H36.9958M15.1667 29.1959H19.6127M22.7218 32.5434V36.8334M29.276 32.5434V36.8334M29.2543 15.1667V19.4567M21.7793 32.4307H30.3832C30.9578 32.4307 31.5089 32.2025 31.9152 31.7961C32.3215 31.3898 32.5498 30.8387 32.5498 30.2641V21.6234C32.5498 21.0488 32.3215 20.4977 31.9152 20.0913C31.5089 19.685 30.9578 19.4567 30.3832 19.4567H21.7793C21.2047 19.4567 20.6536 19.685 20.2473 20.0913C19.8409 20.4977 19.6127 21.0488 19.6127 21.6234V30.2641C19.6127 30.8387 19.8409 31.3898 20.2473 31.7961C20.6536 32.2025 21.2047 32.4307 21.7793 32.4307Z" stroke="#9C5C08" stroke-width="3" stroke-linecap="round"/>
</svg>
