<svg width="47" height="47" viewBox="0 0 47 47" fill="none" xmlns="http://www.w3.org/2000/svg">
<g clip-path="url(#clip0_213_1683)">
<path d="M22.5659 1.60851C22.6374 1.41772 22.7654 1.25331 22.9328 1.13724C23.1003 1.02117 23.2992 0.958984 23.5029 0.958984C23.7067 0.958984 23.9056 1.02117 24.073 1.13724C24.2405 1.25331 24.3685 1.41772 24.44 1.60851L29.5121 15.9885H43.8373C44.0416 15.9894 44.2408 16.0526 44.4082 16.1698C44.5756 16.287 44.7032 16.4525 44.7739 16.6442C44.8447 16.8359 44.8551 17.0446 44.8039 17.2425C44.7527 17.4403 44.6423 17.6177 44.4874 17.751L32.5181 27.6739L37.5275 42.7237C37.594 42.9253 37.5948 43.1428 37.5298 43.3449C37.4648 43.547 37.3373 43.7233 37.1657 43.8482C36.9941 43.9732 36.7872 44.0405 36.5749 44.0405C36.3626 44.0404 36.1559 43.9729 35.9844 43.8478L23.5 34.6887L11.0097 43.8458C10.8384 43.97 10.6321 44.0366 10.4205 44.0361C10.2089 44.0356 10.0029 43.9681 9.83207 43.8432C9.66127 43.7183 9.53445 43.5425 9.46983 43.341C9.40521 43.1395 9.40613 42.9227 9.47244 42.7218L14.4838 27.672L2.51253 17.7491C2.35768 17.6158 2.24726 17.4383 2.19605 17.2405C2.14485 17.0427 2.15531 16.8339 2.22603 16.6422C2.29675 16.4505 2.42435 16.285 2.59175 16.1678C2.75915 16.0506 2.95836 15.9874 3.16269 15.9866H17.4899L22.5659 1.60851Z" stroke="#9C5C08" stroke-width="4" stroke-linecap="round" stroke-linejoin="round"/>
</g>
<defs>
<clipPath id="clip0_213_1683">
<rect width="47" height="47" fill="white"/>
</clipPath>
</defs>
</svg>
