<svg width="53" height="53" viewBox="0 0 53 53" fill="none" xmlns="http://www.w3.org/2000/svg">
<path d="M11.0417 48.5833C10.456 48.5833 9.89429 48.3506 9.48015 47.9365C9.06601 47.5224 8.83334 46.9606 8.83334 46.375V28.7083C8.83334 28.1226 9.06601 27.5609 9.48015 27.1468C9.89429 26.7326 10.456 26.5 11.0417 26.5C11.6274 26.5 12.1891 26.7326 12.6032 27.1468C13.0173 27.5609 13.25 28.1226 13.25 28.7083V46.375C13.25 46.9606 13.0173 47.5224 12.6032 47.9365C12.1891 48.3506 11.6274 48.5833 11.0417 48.5833ZM22.0833 48.5833C21.4977 48.5833 20.936 48.3506 20.5218 47.9365C20.1077 47.5224 19.875 46.9606 19.875 46.375V6.62496C19.875 6.03927 20.1077 5.47757 20.5218 5.06343C20.936 4.64929 21.4977 4.41663 22.0833 4.41663C22.669 4.41663 23.2307 4.64929 23.6449 5.06343C24.059 5.47757 24.2917 6.03927 24.2917 6.62496V46.375C24.2917 46.9606 24.059 47.5224 23.6449 47.9365C23.2307 48.3506 22.669 48.5833 22.0833 48.5833ZM33.125 48.5833C32.5393 48.5833 31.9776 48.3506 31.5635 47.9365C31.1493 47.5224 30.9167 46.9606 30.9167 46.375V19.875C30.9167 19.2893 31.1493 18.7276 31.5635 18.3134C31.9776 17.8993 32.5393 17.6666 33.125 17.6666C33.7107 17.6666 34.2724 17.8993 34.6865 18.3134C35.1007 18.7276 35.3333 19.2893 35.3333 19.875V46.375C35.3333 46.9606 35.1007 47.5224 34.6865 47.9365C34.2724 48.3506 33.7107 48.5833 33.125 48.5833ZM44.1667 48.5833C43.581 48.5833 43.0193 48.3506 42.6051 47.9365C42.191 47.5224 41.9583 46.9606 41.9583 46.375V37.5416C41.9583 36.9559 42.191 36.3942 42.6051 35.9801C43.0193 35.566 43.581 35.3333 44.1667 35.3333C44.7524 35.3333 45.3141 35.566 45.7282 35.9801C46.1424 36.3942 46.375 36.9559 46.375 37.5416V46.375C46.375 46.9606 46.1424 47.5224 45.7282 47.9365C45.3141 48.3506 44.7524 48.5833 44.1667 48.5833Z" fill="#9C5C08"/>
</svg>
